#Comment line ignore any data following # character 
#Hierarchical Translation and Rotation (.htr) file 
[Header]	
#Header keywords are followed by a single value 
FileType HTR		#Single word string
DataType HTRS		#Translation followed by rotation and scale data
FileVersion 1		#integer
NumSegments 64		#integer
NumFrames 3		#integer
DataFrameRate 30		#integer, data frame rate in this file
EulerRotationOrder ZYX
CalibrationUnits mm
RotationUnits Degrees
GlobalAxisofGravity Y
BoneLengthAxis Y
ScaleFactor 1.00
[SegmentNames&Hierarchy]
#CHILD	PARENT
Pinger_Root GLOBAL
Pelvis Pinger_Root
L_Hip Pelvis
R_Hip Pelvis
Rear_Leg01 Pelvis
Spine1 Pelvis
L_Leg01 L_Hip
L_Leg02 L_Leg01
L_Leg03 L_Leg02
L_Foot L_Leg03
L_Toe1_01 L_Foot
L_Toe2_01 L_Foot
L_Toe3_01 L_Foot
planeAlignerLeft L_Foot
L_Toe1_02 L_Toe1_01
L_Toe1_03 L_Toe1_02
L_Toe2_02 L_Toe2_01
L_Toe2_03 L_Toe2_02
L_Toe3_02 L_Toe3_01
L_Toe3_03 L_Toe3_02
planeLockWeightLeft planeAlignerLeft
R_Leg01 R_Hip
R_Leg02 R_Leg01
R_Leg03 R_Leg02
R_Foot R_Leg03
planeAlignerRight R_Foot
R_Toe1_01 R_Foot
R_Toe2_01 R_Foot
R_Toe3_01 R_Foot
planeLockWeightRight planeAlignerRight
R_Toe1_02 R_Toe1_01
R_Toe1_03 R_Toe1_02
R_Toe2_02 R_Toe2_01
R_Toe2_03 R_Toe2_02
R_Toe3_02 R_Toe3_01
R_Toe3_03 R_Toe3_02
Rear_Leg02 Rear_Leg01
Rear_Leg03 Rear_Leg02
Rear_Leg04 Rear_Leg03
Rear_Foot Rear_Leg04
planeAlignerCenter Rear_Foot
Rear_Toe1_01 Rear_Foot
Rear_Toe2_01 Rear_Foot
Rear_Toe3_01 Rear_Foot
planeLockWeightCenter planeAlignerCenter
Rear_Toe1_02 Rear_Toe1_01
Rear_Toe1_03 Rear_Toe1_02
Rear_Toe2_02 Rear_Toe2_01
Rear_Toe2_03 Rear_Toe2_02
Rear_Toe3_02 Rear_Toe3_01
Rear_Toe3_03 Rear_Toe3_02
Back_Bone Spine1
Head Spine1
Motor_Bone Back_Bone
Ping_Mechanism Back_Bone
BN_LookIK Head
bottomMouth Head
L_Mouth01 Head
L_mouthFront Head
mouthGun Head
R_Mouth01 Head
R_mouthFront Head
TopMouth Head
weapon_bone Head
[BasePosition]
#SegmentName Tx, Ty, Tz, Rx, Ry, Rz, BoneLength
Pinger_Root 0.000000 0.000000 0.000000 -90.000000 0.000000 0.000000 10.000000 
Pelvis 0.000000 0.000000 0.000000 0.000000 0.000000 0.000000 10.000000 
L_Hip 0.000000 0.000000 0.000000 0.000000 0.000000 0.000000 10.000000 
R_Hip 0.000000 0.000000 0.000000 0.000000 0.000000 0.000000 10.000000 
Rear_Leg01 0.000000 0.000000 0.000000 0.000000 0.000000 0.000000 10.000000 
Spine1 0.000000 0.000000 0.000000 0.000000 0.000000 0.000000 10.000000 
L_Leg01 0.000000 0.000000 0.000000 0.000000 0.000000 0.000000 10.000000 
L_Leg02 0.000000 0.000000 0.000000 0.000000 0.000000 0.000000 10.000000 
L_Leg03 0.000000 0.000000 0.000000 0.000000 0.000000 0.000000 10.000000 
L_Foot 0.000000 0.000000 0.000000 0.000000 0.000000 0.000000 10.000000 
L_Toe1_01 0.000000 0.000000 0.000000 0.000000 0.000000 0.000000 10.000000 
L_Toe2_01 0.000000 0.000000 0.000000 0.000000 0.000000 0.000000 10.000000 
L_Toe3_01 0.000000 0.000000 0.000000 0.000000 0.000000 0.000000 10.000000 
planeAlignerLeft 0.000000 0.000000 0.000000 0.000000 0.000000 0.000000 10.000000 
L_Toe1_02 0.000000 0.000000 0.000000 0.000000 0.000000 0.000000 10.000000 
L_Toe1_03 0.000000 0.000000 0.000000 0.000000 0.000000 0.000000 10.000000 
L_Toe2_02 0.000000 0.000000 0.000000 0.000000 0.000000 0.000000 10.000000 
L_Toe2_03 0.000000 0.000000 0.000000 0.000000 0.000000 0.000000 10.000000 
L_Toe3_02 0.000000 0.000000 0.000000 0.000000 0.000000 0.000000 10.000000 
L_Toe3_03 0.000000 0.000000 0.000000 0.000000 0.000000 0.000000 10.000000 
planeLockWeightLeft 0.000000 0.000000 0.000000 0.000000 0.000000 0.000000 10.000000 
R_Leg01 0.000000 0.000000 0.000000 0.000000 0.000000 0.000000 10.000000 
R_Leg02 0.000000 0.000000 0.000000 0.000000 0.000000 0.000000 10.000000 
R_Leg03 0.000000 0.000000 0.000000 0.000000 0.000000 0.000000 10.000000 
R_Foot 0.000000 0.000000 0.000000 0.000000 0.000000 0.000000 10.000000 
planeAlignerRight 0.000000 0.000000 0.000000 0.000000 0.000000 0.000000 10.000000 
R_Toe1_01 0.000000 0.000000 0.000000 0.000000 0.000000 0.000000 10.000000 
R_Toe2_01 0.000000 0.000000 0.000000 0.000000 0.000000 0.000000 10.000000 
R_Toe3_01 0.000000 0.000000 0.000000 0.000000 0.000000 0.000000 10.000000 
planeLockWeightRight 0.000000 0.000000 0.000000 0.000000 0.000000 0.000000 10.000000 
R_Toe1_02 0.000000 0.000000 0.000000 0.000000 0.000000 0.000000 10.000000 
R_Toe1_03 0.000000 0.000000 0.000000 0.000000 0.000000 0.000000 10.000000 
R_Toe2_02 0.000000 0.000000 0.000000 0.000000 0.000000 0.000000 10.000000 
R_Toe2_03 0.000000 0.000000 0.000000 0.000000 0.000000 0.000000 10.000000 
R_Toe3_02 0.000000 0.000000 0.000000 0.000000 0.000000 0.000000 10.000000 
R_Toe3_03 0.000000 0.000000 0.000000 0.000000 0.000000 0.000000 10.000000 
Rear_Leg02 0.000000 0.000000 0.000000 0.000000 0.000000 0.000000 10.000000 
Rear_Leg03 0.000000 0.000000 0.000000 0.000000 0.000000 0.000000 10.000000 
Rear_Leg04 0.000000 0.000000 0.000000 0.000000 0.000000 0.000000 10.000000 
Rear_Foot 0.000000 0.000000 0.000000 0.000000 0.000000 0.000000 10.000000 
planeAlignerCenter 0.000000 0.000000 0.000000 0.000000 0.000000 0.000000 10.000000 
Rear_Toe1_01 0.000000 0.000000 0.000000 0.000000 0.000000 0.000000 10.000000 
Rear_Toe2_01 0.000000 0.000000 0.000000 0.000000 0.000000 0.000000 10.000000 
Rear_Toe3_01 0.000000 0.000000 0.000000 0.000000 0.000000 0.000000 10.000000 
planeLockWeightCenter 0.000000 0.000000 0.000000 0.000000 0.000000 0.000000 10.000000 
Rear_Toe1_02 0.000000 0.000000 0.000000 0.000000 0.000000 0.000000 10.000000 
Rear_Toe1_03 0.000000 0.000000 0.000000 0.000000 0.000000 0.000000 10.000000 
Rear_Toe2_02 0.000000 0.000000 0.000000 0.000000 0.000000 0.000000 10.000000 
Rear_Toe2_03 0.000000 0.000000 0.000000 0.000000 0.000000 0.000000 10.000000 
Rear_Toe3_02 0.000000 0.000000 0.000000 0.000000 0.000000 0.000000 10.000000 
Rear_Toe3_03 0.000000 0.000000 0.000000 0.000000 0.000000 0.000000 10.000000 
Back_Bone 0.000000 0.000000 0.000000 0.000000 0.000000 0.000000 10.000000 
Head 0.000000 0.000000 0.000000 0.000000 0.000000 0.000000 10.000000 
Motor_Bone 0.000000 0.000000 0.000000 0.000000 0.000000 0.000000 10.000000 
Ping_Mechanism 0.000000 0.000000 0.000000 0.000000 0.000000 0.000000 10.000000 
BN_LookIK 0.000000 0.000000 0.000000 0.000000 0.000000 0.000000 10.000000 
bottomMouth 0.000000 0.000000 0.000000 0.000000 0.000000 0.000000 10.000000 
L_Mouth01 0.000000 0.000000 0.000000 0.000000 0.000000 0.000000 10.000000 
L_mouthFront 0.000000 0.000000 0.000000 0.000000 0.000000 0.000000 10.000000 
mouthGun 0.000000 0.000000 0.000000 0.000000 0.000000 0.000000 10.000000 
R_Mouth01 0.000000 0.000000 0.000000 0.000000 0.000000 0.000000 10.000000 
R_mouthFront 0.000000 0.000000 0.000000 0.000000 0.000000 0.000000 10.000000 
TopMouth 0.000000 0.000000 0.000000 0.000000 0.000000 0.000000 10.000000 
weapon_bone 0.000000 0.000000 0.000000 0.000000 0.000000 0.000000 10.000000 
#Beginning of Data. Separated by tabs
#Fr	Tx	Ty	Tz	Rx	Ry	Rz	SF
[Pinger_Root]
35 0.000000 -4407.405762 0.000000 -0.000075 -0.000000 -0.000020 4407.405762
36 0.000000 -4537.036133 0.000000 -0.000075 -0.000000 -0.000020 4537.036133
37 0.000000 -4666.665527 0.000000 -0.000075 -0.000000 -0.000020 4666.665527
[Pelvis]
35 425.686401 8.592970 5184.905762 -98.923668 -74.321556 76.391678 5202.357910
36 460.195984 21.265886 5200.330566 -95.783379 -75.863785 73.393608 5220.696289
37 486.242706 36.881805 5209.520508 -91.598602 -78.007042 69.780426 5232.293457
[L_Hip]
35 5.766392 125.831482 872.656799 -178.250168 -81.786369 87.376007 881.701050
36 5.766392 125.831482 872.656799 -178.250168 -81.786369 87.376007 881.701050
37 5.766392 125.831482 872.656799 -178.250168 -81.786369 87.376007 881.701050
[R_Hip]
35 5.765438 125.836372 -872.654907 -1.748770 81.786041 87.376961 881.699829
36 5.765438 125.836372 -872.654907 -1.748770 81.786041 87.376961 881.699829
37 5.765438 125.836372 -872.654907 -1.748770 81.786041 87.376961 881.699829
[Rear_Leg01]
35 -192.298416 -925.602966 -0.001907 155.875671 -8.161293 153.187149 945.367432
36 -192.298416 -925.602966 -0.001907 155.901901 -8.135418 153.542435 945.367432
37 -192.298416 -925.602966 -0.001907 156.322174 -7.834855 154.528671 945.367432
[Spine1]
35 290.604584 5.007505 0.000477 18.957872 -5.766865 4.416553 290.647736
36 290.604584 5.007505 0.000477 18.474039 -6.763598 6.007156 290.647736
37 290.604584 5.007505 0.000477 17.603046 -7.676242 8.331902 290.647736
[L_Leg01]
35 761.932007 -0.002384 -0.069261 25.961752 -24.901138 -29.481815 761.932068
36 761.932007 -0.002384 -0.069261 33.865643 -17.905706 -39.894936 761.932068
37 761.932007 -0.002384 -0.069261 40.949547 -9.851381 -49.578495 761.932068
[L_Leg02]
35 1441.140503 -0.000954 -0.000715 5.221920 0.092296 -148.701904 1441.140503
36 1441.140503 -0.000954 -0.000715 5.549454 0.509252 -145.408371 1441.140503
37 1441.140503 -0.000954 -0.000715 5.504390 0.785277 -139.174164 1441.140503
[L_Leg03]
35 1686.963989 -0.000715 -0.000954 -0.049309 0.022169 123.553154 1686.963989
36 1686.963989 -0.000715 -0.000954 -0.063821 0.033032 127.943367 1686.963989
37 1686.963989 -0.000715 -0.000954 -0.076068 0.039524 130.853729 1686.963989
[L_Foot]
35 3041.570068 -30.715107 11.297464 -14.244230 11.560461 88.277969 3041.746094
36 3041.570068 -30.715107 11.297464 -16.770832 10.807882 82.463112 3041.746094
37 3041.570068 -30.715107 11.297464 -18.768774 10.226890 75.008682 3041.746094
[L_Toe1_01]
35 -188.216690 -224.732346 -21.137953 88.632851 -1.601405 -139.972931 293.899567
36 -188.216690 -224.732346 -21.137953 88.641243 -1.628636 -139.930069 293.899567
37 -188.216690 -224.732346 -21.137953 88.649597 -1.655870 -139.887192 293.899567
[L_Toe2_01]
35 200.746536 -219.926590 148.838394 -73.162216 -3.797880 -76.699356 332.896027
36 200.746536 -219.926590 148.838394 -73.288231 -3.774775 -75.849724 332.896027
37 200.746536 -219.926590 148.838394 -73.413895 -3.749809 -75.000031 332.896027
[L_Toe3_01]
35 188.832520 -219.859131 -191.078659 -111.424828 4.518486 -77.793144 347.140900
36 188.832520 -219.859131 -191.078659 -111.265564 4.493033 -76.939575 347.140900
37 188.832520 -219.859131 -191.078659 -111.106682 4.465228 -76.085999 347.140900
[planeAlignerLeft]
35 53.026855 -789.052856 3.706380 0.000000 -90.000000 -90.001900 790.841309
36 57.082447 -780.189270 1.047231 0.000000 -90.000000 -90.001900 782.275391
37 61.137970 -771.325684 -1.611918 0.000000 -90.000000 -90.001900 773.746582
[L_Toe1_02]
35 413.761139 0.000477 0.000000 0.001448 -18.263691 0.001448 413.761139
36 413.761139 0.000477 0.000000 0.001455 -17.549871 0.001455 413.761139
37 413.761139 0.000477 0.000000 0.001459 -17.106144 0.001459 413.761139
[L_Toe1_03]
35 464.317322 0.000358 -0.000089 -179.992188 83.108467 -179.988678 464.317322
36 464.317322 0.000358 -0.000089 -179.994003 81.490654 -179.990494 464.317322
37 464.317322 0.000358 -0.000089 -179.995239 79.872505 -179.991730 464.317322
[L_Toe2_02]
35 342.235809 -0.000477 0.000238 0.001180 -77.998970 0.001180 342.235809
36 342.235809 -0.000477 0.000238 0.001180 -77.919495 0.001180 342.235809
37 342.235809 -0.000477 0.000238 0.001180 -77.840073 0.001180 342.235809
[L_Toe2_03]
35 420.210846 -0.000715 0.000000 -179.997086 75.899437 -179.993561 420.210846
36 420.210846 -0.000715 0.000000 -179.997025 76.071877 -179.993500 420.210846
37 420.210846 -0.000715 0.000000 -179.996887 76.462273 -179.993362 420.210846
[L_Toe3_02]
35 329.270111 0.000954 0.000000 0.001177 -81.664688 0.001177 329.270111
36 329.270111 0.000954 0.000000 0.001177 -81.591087 0.001177 329.270111
37 329.270111 0.000954 0.000000 0.001177 -81.517487 0.001177 329.270111
[L_Toe3_03]
35 439.137451 -0.001907 0.000954 -179.997711 73.695557 -179.994186 439.137451
36 439.137451 -0.001907 0.000954 -179.997681 73.822227 -179.994141 439.137451
37 439.137451 -0.001907 0.000954 -179.997589 74.169998 -179.994064 439.137451
[planeLockWeightLeft]
35 0.000000 0.098236 0.076065 -0.011826 -0.004376 0.005620 0.124243
36 0.000000 0.098244 0.076065 -0.011826 -0.004376 0.005620 0.124249
37 0.000000 0.098251 0.076065 -0.011826 -0.004376 0.005620 0.124255
[R_Leg01]
35 761.455627 -0.001907 -0.000358 89.617287 -27.648104 84.498291 761.455688
36 761.455627 -0.001907 -0.000358 90.721771 -27.751688 84.182289 761.455688
37 761.455627 -0.001907 -0.000358 92.248253 -27.573778 83.620911 761.455688
[R_Leg02]
35 1441.140625 0.000000 -0.000238 0.206599 0.024660 -88.796417 1441.140625
36 1441.140625 0.000000 -0.000238 0.209772 0.026066 -90.237305 1441.140625
37 1441.140625 0.000000 -0.000238 0.209537 0.016072 -92.422340 1441.140625
[R_Leg03]
35 1686.963989 0.000954 0.001431 -0.028547 0.006740 102.875610 1686.963989
36 1686.963989 0.000954 0.001431 -0.025106 0.005864 103.832603 1686.963989
37 1686.963989 0.000954 0.001431 -0.021680 0.004930 104.789810 1686.963989
[R_Foot]
35 3041.560059 -30.531288 -11.204481 6.340547 -12.432857 61.785973 3041.734131
36 3041.560059 -30.531288 -11.204481 5.633759 -11.342481 60.841919 3041.734131
37 3041.560059 -30.531288 -11.204481 4.911366 -10.263716 59.887680 3041.734131
[planeAlignerRight]
35 38.215855 -602.304443 20.153221 0.000000 -89.960434 -90.005180 603.851990
36 37.122196 -620.349426 18.062151 0.000000 -89.960434 -90.005180 621.721558
37 34.154987 -643.364441 15.622272 0.000000 -89.960434 -90.005180 644.459778
[R_Toe1_01]
35 -188.383347 -224.864899 21.052242 90.685432 1.044438 -167.647629 294.101532
36 -188.383347 -224.864899 21.052242 90.696762 1.145298 -166.235199 294.101532
37 -188.383347 -224.864899 21.052242 90.722015 1.259346 -164.193085 294.101532
[R_Toe2_01]
35 200.637817 -220.002121 -148.787384 -101.461952 10.985050 -43.630909 332.857574
36 200.637817 -220.002121 -148.787384 -101.735779 10.807834 -44.878582 332.857574
37 200.637817 -220.002121 -148.787384 -102.183533 10.632815 -46.820011 332.857574
[R_Toe3_01]
35 188.606735 -220.092957 191.126343 -74.163879 -16.038120 -46.198574 347.192566
36 188.606735 -220.092957 191.126343 -73.902252 -15.530949 -47.350685 347.192566
37 188.606735 -220.092957 191.126343 -73.435890 -14.963534 -49.190796 347.192566
[planeLockWeightRight]
35 999.999512 -0.000821 0.076058 -0.011823 -0.004379 -0.000027 999.999512
36 999.999573 -0.000810 0.076054 -0.011823 -0.004379 -0.000027 999.999573
37 999.999573 -0.000800 0.076051 -0.011823 -0.004379 -0.000027 999.999573
[R_Toe1_02]
35 413.762085 0.000477 -0.000119 0.001428 -20.493525 0.001428 413.762085
36 413.762085 0.000477 -0.000119 0.001424 -21.005114 0.001424 413.762085
37 413.762085 0.000477 -0.000119 0.001420 -21.516720 0.001420 413.762085
[R_Toe1_03]
35 464.317810 0.000000 0.001088 -0.055134 88.765999 -0.051637 464.317810
36 464.317810 0.000000 0.001088 -0.027188 87.410629 -0.023690 464.317810
37 464.317810 0.000000 0.001088 -0.015995 85.375511 -0.012496 464.317810
[R_Toe2_02]
35 342.234741 -0.000954 0.000238 -0.002340 -76.375671 -0.002340 342.234741
36 342.234741 -0.000954 0.000238 -0.002341 -75.852036 -0.002341 342.234741
37 342.234741 -0.000954 0.000238 -0.002342 -75.328423 -0.002342 342.234741
[R_Toe2_03]
35 420.210846 0.000715 -0.000268 -179.989960 82.061829 -179.993454 420.210846
36 420.210846 0.000715 -0.000268 -179.987717 83.749001 -179.991211 420.210846
37 420.210846 0.000715 -0.000268 -179.983826 85.436058 -179.987320 420.210846
[R_Toe3_02]
35 329.270355 -0.000477 -0.000954 0.001178 -79.717957 0.001178 329.270355
36 329.270355 -0.000477 -0.000954 0.001179 -79.242928 0.001179 329.270355
37 329.270355 -0.000477 -0.000954 0.001179 -78.767807 0.001179 329.270355
[R_Toe3_03]
35 439.137939 0.000238 0.001431 -179.994003 81.492706 -179.990494 439.137939
36 439.137939 0.000238 0.001431 -179.992554 82.844925 -179.989044 439.137939
37 439.137939 0.000238 0.001431 -179.990402 84.196907 -179.986893 439.137939
[Rear_Leg02]
35 1162.777710 -0.029802 0.005960 -2.983329 7.507088 -119.056564 1162.777710
36 1162.777710 -0.029802 0.005960 -2.539283 6.659071 -117.943626 1162.777710
37 1162.777710 -0.029802 0.005960 -2.161662 5.675469 -117.574959 1162.777710
[Rear_Leg03]
35 607.192505 -0.013351 -0.073195 0.010478 -0.005134 68.560707 607.192505
36 607.192505 -0.013351 -0.073195 0.010483 -0.005124 68.447060 607.192505
37 607.192505 -0.013351 -0.073195 0.010489 -0.005113 68.333420 607.192505
[Rear_Leg04]
35 995.874512 -0.020504 -0.011921 -0.040210 -0.018767 67.321892 995.874573
36 995.874512 -0.020504 -0.011921 -0.040088 -0.019025 66.585075 995.874573
37 995.874512 -0.020504 -0.011921 -0.040096 -0.019009 66.632416 995.874573
[Rear_Foot]
35 3096.176270 -0.067472 -0.041425 98.077660 82.000099 -111.254959 3096.176270
36 3096.176270 -0.067472 -0.041425 103.862709 82.749748 -107.029922 3096.176270
37 3096.176270 -0.067472 -0.041425 109.767387 83.696648 -102.908356 3096.176270
[planeAlignerCenter]
35 1.038456 78.660385 -718.996399 0.000009 0.000003 -179.999985 723.287170
36 1.038360 82.651939 -710.816101 0.000009 0.000003 -179.999985 715.606018
37 1.038666 86.999176 -708.458862 0.000009 0.000003 -179.999985 713.781372
[Rear_Toe1_01]
35 0.653352 83.966492 -371.173737 0.059721 22.970692 90.027473 380.553192
36 0.653352 83.966492 -371.173737 0.061282 22.551380 90.027084 380.553192
37 0.653352 83.966492 -371.173737 0.055045 22.558504 90.031555 380.553192
[Rear_Toe2_01]
35 178.200760 -294.826019 -362.060547 1.012250 47.658497 -69.772087 499.765686
36 178.200760 -294.826019 -362.060547 1.066066 47.337109 -69.653191 499.765686
37 178.200760 -294.826019 -362.060547 1.118582 47.015656 -69.535446 499.765686
[Rear_Toe3_01]
35 -153.359680 -308.780914 -362.060852 -1.267176 47.664898 -112.712715 499.952881
36 -153.359680 -308.780914 -362.060852 -1.325749 47.347683 -112.843582 499.952881
37 -153.359680 -308.780914 -362.060852 -1.382921 47.030369 -112.973206 499.952881
[planeLockWeightCenter]
35 1000.000122 0.000140 0.076244 -0.011814 -0.004373 -0.000015 1000.000122
36 1000.000000 0.000157 0.076244 -0.011814 -0.004373 -0.000015 1000.000000
37 1000.000000 0.000173 0.076244 -0.011814 -0.004373 -0.000015 1000.000000
[Rear_Toe1_02]
35 379.707825 0.194073 0.000477 -0.000767 -33.624729 0.000838 379.707855
36 379.707825 0.194073 0.000477 -0.000767 -33.624729 0.000838 379.707855
37 379.707825 0.194073 0.000477 -0.000767 -33.624729 0.000838 379.707855
[Rear_Toe1_03]
35 500.129700 0.165701 0.000119 0.007069 70.887398 0.007069 500.129761
36 500.129700 0.165701 0.000119 0.007023 70.759880 0.007023 500.129761
37 500.129700 0.165701 0.000119 0.006784 70.075882 0.006784 500.129761
[Rear_Toe2_02]
35 340.494507 0.000238 -0.000954 0.001175 -84.903458 0.001175 340.494507
36 340.494507 0.000238 -0.000954 0.001175 -85.465210 0.001175 340.494507
37 340.494507 0.000238 -0.000954 0.001174 -85.681175 0.001174 340.494507
[Rear_Toe2_03]
35 433.103577 0.000000 0.000238 179.984818 81.134155 179.984818 433.103546
36 433.103577 0.000000 0.000238 179.986313 80.164650 179.986313 433.103546
37 433.103577 0.000000 0.000238 179.987534 79.194977 179.987534 433.103546
[Rear_Toe3_02]
35 340.494141 -0.000358 -0.000477 0.001175 -84.800652 0.001175 340.494171
36 340.494141 -0.000358 -0.000477 0.001175 -85.357506 0.001175 340.494171
37 340.494141 -0.000358 -0.000477 0.001174 -85.576546 0.001174 340.494171
[Rear_Toe3_03]
35 433.103577 0.001431 -0.000238 -179.994110 81.388359 -179.990601 433.103546
36 433.103577 0.001431 -0.000238 -179.994873 80.426582 -179.991364 433.103546
37 433.103577 0.001431 -0.000238 -179.995499 79.464790 -179.991989 433.103546
[Back_Bone]
35 1312.175781 -701.934692 0.000954 2.721387 2.694739 -83.412727 1488.125488
36 1312.175781 -701.934692 0.000954 2.636139 3.033846 -82.984337 1488.125488
37 1312.175781 -701.934692 0.000954 2.377839 3.059946 -82.530098 1488.125488
[Head]
35 1406.159424 809.709290 0.001431 2.951850 -2.369007 19.874142 1622.625488
36 1406.159424 809.709290 0.001431 2.909038 -2.057032 19.766335 1622.625488
37 1406.159424 809.709290 0.001431 2.865643 -1.745136 19.658304 1622.625488
[Motor_Bone]
35 1158.364380 -417.834747 0.000477 2.853682 -2.893695 -108.875999 1231.419434
36 1158.364380 -417.834747 0.000477 5.387601 -1.836383 -107.820099 1231.419434
37 1158.364380 -417.834747 0.000477 -0.064436 0.133398 -105.853737 1231.419434
[Ping_Mechanism]
35 1287.861938 -456.945801 21.533392 0.000103 -0.000053 82.120995 1366.693726
36 1279.176147 -455.903320 23.376528 0.000103 -0.000053 82.120995 1358.192139
37 1267.756470 -453.466492 23.743130 0.000103 -0.000053 82.120995 1346.626099
[BN_LookIK]
35 193.241119 1380.371704 -0.002861 0.000000 89.965736 -31.038179 1393.832153
36 193.241119 1380.371704 -0.002861 0.000000 89.965736 -31.038179 1393.832153
37 193.241119 1380.371704 -0.002861 0.000000 89.965736 -31.038179 1393.832153
[bottomMouth]
35 -435.092926 615.759399 -0.000954 -0.000022 0.000016 73.527184 753.966492
36 -435.092926 615.759399 -0.000954 -0.000022 0.000016 73.527184 753.966492
37 -435.092926 615.759399 -0.000954 -0.000022 0.000016 73.527184 753.966492
[L_Mouth01]
35 554.440979 7.658243 838.222046 150.204178 23.759130 109.605339 1005.027161
36 554.440979 7.658243 838.222046 150.204178 23.759130 109.605339 1005.027161
37 554.440979 7.658243 838.222046 150.204178 23.759130 109.605339 1005.027161
[L_mouthFront]
35 551.629089 934.514771 339.150421 0.000081 2.804060 79.119301 1136.941284
36 551.629089 934.514771 339.150421 0.000081 2.804060 79.119301 1136.941284
37 551.629089 934.514771 339.150421 0.000081 2.804060 79.119301 1136.941284
[mouthGun]
35 55.332661 1627.420898 0.000000 0.000023 0.000009 -11.038128 1628.361328
36 55.332661 1627.420898 0.000000 0.000023 0.000009 -11.038128 1628.361328
37 55.332661 1627.420898 0.000000 0.000023 0.000009 -11.038128 1628.361328
[R_Mouth01]
35 554.442383 7.659197 -838.223938 29.795891 -23.759109 109.605331 1005.029541
36 554.442383 7.659197 -838.223938 29.795891 -23.759109 109.605331 1005.029541
37 554.442383 7.659197 -838.223938 29.795891 -23.759109 109.605331 1005.029541
[R_mouthFront]
35 551.629089 934.514282 -339.151367 0.000029 -2.803930 79.119133 1136.941162
36 551.629089 934.514282 -339.151367 0.000029 -2.803930 79.119133 1136.941162
37 551.629089 934.514282 -339.151367 0.000029 -2.803930 79.119133 1136.941162
[TopMouth]
35 461.269867 -56.106091 -0.008583 -0.000059 -0.000268 92.025169 464.669525
36 461.269867 -56.106091 -0.008583 -0.000059 -0.000268 92.025169 464.669525
37 461.269867 -56.106091 -0.008583 -0.000059 -0.000268 92.025169 464.669525
[weapon_bone]
35 -987.239868 1448.372803 0.001431 0.000000 89.965736 -31.038221 1752.833740
36 -987.239868 1448.372803 0.001431 0.000000 89.965736 -31.038221 1752.833740
37 -987.239868 1448.372803 0.001431 0.000000 89.965736 -31.038221 1752.833740
